<svg width="25" height="25" viewBox="0 0 25 25" fill="none" xmlns="http://www.w3.org/2000/svg">
<path d="M22.5 12.4044C22.5 17.9273 18.0228 22.4044 12.5 22.4044M22.5 12.4044C22.5 6.88157 18.0228 2.40442 12.5 2.40442M22.5 12.4044H2.5M12.5 22.4044C6.97715 22.4044 2.5 17.9273 2.5 12.4044M12.5 22.4044C9.93223 19.7083 8.5 16.1277 8.5 12.4044C8.5 8.68116 9.93223 5.10057 12.5 2.40442M12.5 22.4044C15.0678 19.7083 16.5 16.1277 16.5 12.4044C16.5 8.68116 15.0678 5.10057 12.5 2.40442M2.5 12.4044C2.5 6.88157 6.97715 2.40442 12.5 2.40442" stroke="#4C30E2" stroke-width="2" stroke-linecap="round" stroke-linejoin="round"/>
</svg>
