<svg width="25" height="24" viewBox="0 0 25 24" fill="none" xmlns="http://www.w3.org/2000/svg">
<path fill-rule="evenodd" clip-rule="evenodd" d="M5.21429 0C4.87329 5.08119e-09 4.54627 0.135459 4.30515 0.376577C4.06403 0.617695 3.92857 0.944722 3.92857 1.28571C3.92857 1.62671 4.06403 1.95373 4.30515 2.19485C4.54627 2.43597 4.87329 2.57143 5.21429 2.57143H16.3571C17.8348 2.57143 19.2519 3.15842 20.2967 4.20326C21.3416 5.24811 21.9286 6.66522 21.9286 8.14286V14.5714H20.6429C20.3019 14.5714 19.9748 14.7069 19.7337 14.948C19.4926 15.1891 19.3571 15.5162 19.3571 15.8571C19.3571 16.1981 19.4926 16.5252 19.7337 16.7663C19.9748 17.0074 20.3019 17.1429 20.6429 17.1429H24.5V8.14286C24.5 5.98324 23.6421 3.91207 22.115 2.38499C20.5879 0.857906 18.5168 0 16.3571 0H5.21429ZM21.0714 22.7143C21.0714 23.0553 20.936 23.3823 20.6949 23.6234C20.4537 23.8645 20.1267 24 19.7857 24H8.64286C6.48324 24 4.41207 23.1421 2.88499 21.615C1.35791 20.0879 0.5 18.0168 0.5 15.8571V6.85714H4.35714C4.69814 6.85714 5.02516 6.9926 5.26628 7.23372C5.5074 7.47484 5.64286 7.80186 5.64286 8.14286C5.64286 8.48385 5.5074 8.81088 5.26628 9.05199C5.02516 9.29311 4.69814 9.42857 4.35714 9.42857H3.07143V15.8571C3.07143 17.3348 3.65842 18.7519 4.70326 19.7967C5.74811 20.8416 7.16522 21.4286 8.64286 21.4286H19.7857C20.1267 21.4286 20.4537 21.564 20.6949 21.8051C20.936 22.0463 21.0714 22.3733 21.0714 22.7143ZM9.44857 7.23429C9.68964 6.99351 10.0164 6.85827 10.3571 6.85827C10.6979 6.85827 11.0246 6.99351 11.2657 7.23429L15.1229 11.0914L16.0314 12L15.1229 12.9086L11.2657 16.7657C11.148 16.892 11.0061 16.9934 10.8484 17.0636C10.6906 17.1339 10.5204 17.1717 10.3478 17.1747C10.1751 17.1778 10.0036 17.146 9.84355 17.0814C9.68345 17.0167 9.53802 16.9204 9.41593 16.7984C9.29385 16.6763 9.1976 16.5308 9.13293 16.3707C9.06827 16.2106 9.03651 16.0392 9.03956 15.8665C9.0426 15.6939 9.08039 15.5236 9.15066 15.3659C9.22093 15.2082 9.32225 15.0663 9.44857 14.9486L12.3971 12L9.44857 9.05143C9.2078 8.81036 9.07256 8.48357 9.07256 8.14286C9.07256 7.80214 9.2078 7.47536 9.44857 7.23429Z" fill="black"/>
</svg>
