<svg width="25" height="25" viewBox="0 0 25 25" fill="none" xmlns="http://www.w3.org/2000/svg">
<path d="M10.5 21.4044V8.40442C10.5 8.1392 10.3946 7.88485 10.2071 7.69731C10.0196 7.50978 9.76522 7.40442 9.5 7.40442H4.5C4.23478 7.40442 3.98043 7.50978 3.79289 7.69731C3.60536 7.88485 3.5 8.1392 3.5 8.40442V20.4044C3.5 20.6696 3.60536 20.924 3.79289 21.1115C3.98043 21.2991 4.23478 21.4044 4.5 21.4044H16.5C16.7652 21.4044 17.0196 21.2991 17.2071 21.1115C17.3946 20.924 17.5 20.6696 17.5 20.4044V15.4044C17.5 15.1392 17.3946 14.8848 17.2071 14.6973C17.0196 14.5098 16.7652 14.4044 16.5 14.4044H3.5M15.5 3.40442H20.5C21.0523 3.40442 21.5 3.85213 21.5 4.40442V9.40442C21.5 9.9567 21.0523 10.4044 20.5 10.4044H15.5C14.9477 10.4044 14.5 9.9567 14.5 9.40442V4.40442C14.5 3.85213 14.9477 3.40442 15.5 3.40442Z" stroke="#4C30E2" stroke-width="2" stroke-linecap="round" stroke-linejoin="round"/>
</svg>
