<svg width="1512" height="982" viewBox="0 0 1512 982" fill="none" xmlns="http://www.w3.org/2000/svg">
<g clip-path="url(#clip0_20_4)">
<rect width="1512" height="982" fill="white"/>
<line x1="96.4998" y1="2.18557e-08" x2="96.4997" y2="982" stroke="black" stroke-opacity="0.1"/>
<line x1="216.5" y1="2.18557e-08" x2="216.5" y2="982" stroke="black" stroke-opacity="0.1"/>
<line x1="336.5" y1="2.18557e-08" x2="336.5" y2="982" stroke="black" stroke-opacity="0.1"/>
<line x1="456.5" y1="2.18557e-08" x2="456.5" y2="982" stroke="url(#paint0_linear_20_4)" stroke-opacity="0.1"/>
<line x1="576.5" y1="2.18557e-08" x2="576.5" y2="982" stroke="url(#paint1_linear_20_4)" stroke-opacity="0.1"/>
<line x1="696.5" y1="2.18557e-08" x2="696.5" y2="982" stroke="url(#paint2_linear_20_4)" stroke-opacity="0.1"/>
<line x1="816.5" y1="2.18557e-08" x2="816.5" y2="982" stroke="url(#paint3_linear_20_4)" stroke-opacity="0.1"/>
<line x1="936.5" y1="2.18557e-08" x2="936.5" y2="982" stroke="url(#paint4_linear_20_4)" stroke-opacity="0.1"/>
<line x1="1056.5" y1="2.18557e-08" x2="1056.5" y2="982" stroke="url(#paint5_linear_20_4)" stroke-opacity="0.1"/>
<line x1="1176.5" y1="2.18557e-08" x2="1176.5" y2="982" stroke="black" stroke-opacity="0.1"/>
<line x1="1296.5" y1="2.18557e-08" x2="1296.5" y2="982" stroke="black" stroke-opacity="0.1"/>
<line x1="1416.5" y1="2.18557e-08" x2="1416.5" y2="982" stroke="black" stroke-opacity="0.1"/>
<line x1="2.18557e-08" y1="904.5" x2="1512" y2="904.5" stroke="black" stroke-opacity="0.1"/>
<line x1="2.18557e-08" y1="784.5" x2="1512" y2="784.5" stroke="black" stroke-opacity="0.1"/>
<line x1="2.18557e-08" y1="664.5" x2="1512" y2="664.5" stroke="url(#paint6_linear_20_4)" stroke-opacity="0.1"/>
<line x1="2.18557e-08" y1="544.5" x2="1512" y2="544.5" stroke="url(#paint7_linear_20_4)" stroke-opacity="0.1"/>
<line x1="2.18557e-08" y1="424.5" x2="1512" y2="424.5" stroke="url(#paint8_linear_20_4)" stroke-opacity="0.1"/>
<line x1="2.18557e-08" y1="304.5" x2="1512" y2="304.5" stroke="url(#paint9_linear_20_4)" stroke-opacity="0.1"/>
<line x1="2.18557e-08" y1="184.5" x2="1512" y2="184.5" stroke="black" stroke-opacity="0.1"/>
<line x1="2.18557e-08" y1="64.4999" x2="1512" y2="64.4999" stroke="black" stroke-opacity="0.1"/>
</g>
<defs>
<linearGradient id="paint0_linear_20_4" x1="455.5" y1="-2.18557e-08" x2="455.5" y2="982" gradientUnits="userSpaceOnUse">
<stop/>
<stop offset="0.15" stop-opacity="0.6"/>
<stop offset="0.5" stop-color="white"/>
<stop offset="0.85" stop-opacity="0.6"/>
<stop offset="1"/>
</linearGradient>
<linearGradient id="paint1_linear_20_4" x1="575.5" y1="-2.18557e-08" x2="575.5" y2="982" gradientUnits="userSpaceOnUse">
<stop/>
<stop offset="0.15" stop-opacity="0.6"/>
<stop offset="0.5" stop-color="white"/>
<stop offset="0.85" stop-opacity="0.6"/>
<stop offset="1"/>
</linearGradient>
<linearGradient id="paint2_linear_20_4" x1="695.5" y1="-2.18557e-08" x2="695.5" y2="982" gradientUnits="userSpaceOnUse">
<stop/>
<stop offset="0.15" stop-opacity="0.6"/>
<stop offset="0.5" stop-color="white"/>
<stop offset="0.85" stop-opacity="0.6"/>
<stop offset="1"/>
</linearGradient>
<linearGradient id="paint3_linear_20_4" x1="815.5" y1="-2.18557e-08" x2="815.5" y2="982" gradientUnits="userSpaceOnUse">
<stop/>
<stop offset="0.15" stop-opacity="0.6"/>
<stop offset="0.5" stop-color="white"/>
<stop offset="0.85" stop-opacity="0.6"/>
<stop offset="1"/>
</linearGradient>
<linearGradient id="paint4_linear_20_4" x1="935.5" y1="-2.18557e-08" x2="935.5" y2="982" gradientUnits="userSpaceOnUse">
<stop/>
<stop offset="0.15" stop-opacity="0.6"/>
<stop offset="0.5" stop-color="white"/>
<stop offset="0.85" stop-opacity="0.6"/>
<stop offset="1"/>
</linearGradient>
<linearGradient id="paint5_linear_20_4" x1="1055.5" y1="-2.18557e-08" x2="1055.5" y2="982" gradientUnits="userSpaceOnUse">
<stop/>
<stop offset="0.15" stop-opacity="0.6"/>
<stop offset="0.5" stop-color="white"/>
<stop offset="0.85" stop-opacity="0.6"/>
<stop offset="1"/>
</linearGradient>
<linearGradient id="paint6_linear_20_4" x1="-2.18557e-08" y1="665.5" x2="1512" y2="665.5" gradientUnits="userSpaceOnUse">
<stop/>
<stop offset="0.25" stop-opacity="0.6"/>
<stop offset="0.5" stop-color="white"/>
<stop offset="0.85" stop-opacity="0.6"/>
<stop offset="1"/>
</linearGradient>
<linearGradient id="paint7_linear_20_4" x1="-2.18557e-08" y1="545.5" x2="1512" y2="545.5" gradientUnits="userSpaceOnUse">
<stop/>
<stop offset="0.25" stop-opacity="0.6"/>
<stop offset="0.5" stop-color="white"/>
<stop offset="0.85" stop-opacity="0.6"/>
<stop offset="1"/>
</linearGradient>
<linearGradient id="paint8_linear_20_4" x1="-2.18557e-08" y1="425.5" x2="1512" y2="425.5" gradientUnits="userSpaceOnUse">
<stop/>
<stop offset="0.25" stop-opacity="0.6"/>
<stop offset="0.5" stop-color="white"/>
<stop offset="0.85" stop-opacity="0.6"/>
<stop offset="1"/>
</linearGradient>
<linearGradient id="paint9_linear_20_4" x1="-2.18557e-08" y1="305.5" x2="1512" y2="305.5" gradientUnits="userSpaceOnUse">
<stop/>
<stop offset="0.25" stop-opacity="0.6"/>
<stop offset="0.5" stop-color="white"/>
<stop offset="0.85" stop-opacity="0.6"/>
<stop offset="1"/>
</linearGradient>
<clipPath id="clip0_20_4">
<rect width="1512" height="982" fill="white"/>
</clipPath>
</defs>
</svg>
