<svg width="25" height="25" viewBox="0 0 25 25" fill="none" xmlns="http://www.w3.org/2000/svg">
<path d="M7.5 3.40442V21.4044M4.5 3.40442H10.5C11.0523 3.40442 11.5 3.85213 11.5 4.40442V20.4044C11.5 20.9567 11.0523 21.4044 10.5 21.4044H4.5C3.94772 21.4044 3.5 20.9567 3.5 20.4044V4.40442C3.5 3.85213 3.94772 3.40442 4.5 3.40442ZM20.9 19.3044C21.1 19.8044 20.8 20.4044 20.3 20.6044L18.4 21.3044C17.9 21.5044 17.3 21.2044 17.1 20.7044L11.6 5.50442C11.4 5.00442 11.7 4.40442 12.2 4.20442L14.1 3.50442C14.6 3.30442 15.2 3.60442 15.4 4.10442L20.9 19.3044Z" stroke="#4C30E2" stroke-width="2" stroke-linecap="round" stroke-linejoin="round"/>
</svg>
